<svg width="26" height="26" viewBox="0 0 26 26" fill="none" xmlns="http://www.w3.org/2000/svg">
<circle cx="13" cy="13" r="13" fill="#2A241E"/>
<mask id="path-2-inside-1_31_21" fill="white">
<path d="M21.0476 13C21.0476 17.4446 17.4446 21.0476 13 21.0476C8.55543 21.0476 4.95239 17.4446 4.95239 13C4.95239 8.55542 8.55543 4.95238 13 4.95238C17.4446 4.95238 21.0476 8.55542 21.0476 13ZM5.94523 13C5.94523 16.8962 9.10376 20.0548 13 20.0548C16.8963 20.0548 20.0548 16.8962 20.0548 13C20.0548 9.10375 16.8963 5.94522 13 5.94522C9.10376 5.94522 5.94523 9.10375 5.94523 13Z"/>
</mask>
<path d="M21.0476 13C21.0476 17.4446 17.4446 21.0476 13 21.0476C8.55543 21.0476 4.95239 17.4446 4.95239 13C4.95239 8.55542 8.55543 4.95238 13 4.95238C17.4446 4.95238 21.0476 8.55542 21.0476 13ZM5.94523 13C5.94523 16.8962 9.10376 20.0548 13 20.0548C16.8963 20.0548 20.0548 16.8962 20.0548 13C20.0548 9.10375 16.8963 5.94522 13 5.94522C9.10376 5.94522 5.94523 9.10375 5.94523 13Z" fill="#F4D460" stroke="#F4D460" stroke-width="2" mask="url(#path-2-inside-1_31_21)"/>
<mask id="path-3-inside-2_31_21" fill="white">
<path d="M13.0476 5C15.182 5 17.2289 5.84787 18.7381 7.3571C20.2474 8.86632 21.0952 10.9133 21.0952 13.0476C21.0952 15.182 20.2474 17.2289 18.7381 18.7381C17.2289 20.2474 15.182 21.0952 13.0476 21.0952L13.0476 13.0476L13.0476 5Z"/>
</mask>
<path d="M13.0476 5C15.182 5 17.2289 5.84787 18.7381 7.3571C20.2474 8.86632 21.0952 10.9133 21.0952 13.0476C21.0952 15.182 20.2474 17.2289 18.7381 18.7381C17.2289 20.2474 15.182 21.0952 13.0476 21.0952L13.0476 13.0476L13.0476 5Z" fill="#F4D460" stroke="#F4D460" stroke-width="2" mask="url(#path-3-inside-2_31_21)"/>
</svg>
