<?xml version="1.0" encoding="UTF-8"?>
<svg width="224px" height="256px" viewBox="0 0 224 256" version="1.1" xmlns="http://www.w3.org/2000/svg" xmlns:xlink="http://www.w3.org/1999/xlink">
    <title>Glyph_256</title>
    <g id="Page-1" stroke="none" stroke-width="1" fill="none" fill-rule="evenodd">
        <g id="256">
            <path d="M176.582577,0.126973552 C174.488606,0.592879951 173.571977,1.43907467 171.101205,5.18711322 C159.235153,23.1867178 141.759273,42.0383122 119.49187,60.8602104 C114.291512,65.2557083 108.59922,70.268704 108.033384,70.9510293 C107.401894,71.7125882 107.140544,71.6975272 106.646073,70.8714683 C106.162068,70.0630896 105.128403,69.1669647 104.142948,68.7010583 C103.14671,68.2305681 101.493608,68.0419791 100.599182,68.2967052 C100.143722,68.4266875 99.8455801,68.3975479 99.171906,68.1575554 C98.7037596,67.9905755 98.0668775,67.8517531 97.7570001,67.8488064 C97.3275487,67.8445501 97.0684189,67.7103114 96.6684645,67.2843492 C96.0372916,66.6121736 94.6011351,65.9174067 93.5420966,65.772036 C93.0114673,65.6990233 92.5991432,65.5127262 92.2236111,65.1761473 C91.4779389,64.5082281 90.1743605,63.9391871 89.0883624,63.8072403 C88.4181772,63.7260423 88.0121966,63.5606995 87.5097955,63.1651866 C86.3216679,62.22879 85.2226657,61.9046527 83.5324542,61.9920716 C82.7255677,62.0339802 82.0677522,62.0231757 82.0706068,61.9681706 C82.0909058,61.5628353 82.5584179,61.3379036 83.5511673,61.2560508 C84.310478,61.1931878 84.9112024,61.0232613 85.5334946,60.6945403 C86.3781246,60.2482786 86.4609066,60.2348547 87.0609967,60.4453802 C88.0356673,60.7875251 89.7636223,60.7335022 90.7877719,60.3288218 L91.6599958,59.9840576 L92.8157719,60.5887864 C94.6921636,61.5703657 96.6982787,61.5219088 98.3269588,60.45553 L99.0878553,59.9575372 L100.095195,60.2990273 C101.864382,60.8985176 103.407426,60.7109108 105.055136,59.6959355 C105.713586,59.2902728 105.914039,59.2529479 107.441541,59.2509835 C109.000126,59.249019 109.177425,59.213986 110.156853,58.7166481 C111.90257,57.8306729 113.077694,56.1677505 113.690153,53.7177311 C113.860475,53.0357332 114.127851,52.5334841 114.642939,51.9254812 C116.547559,49.677802 117.557753,45.9161726 117.940897,39.6446076 C118.148328,36.2464048 117.957073,31.8257945 117.502882,29.5362067 C116.676331,25.3667865 114.292147,23.5083994 108.793647,22.7474954 C107.266779,22.536315 104.769364,22.3223517 94.3559609,21.5108626 C93.1348473,21.4157496 91.8502993,21.2721797 91.5014097,21.1919639 C90.3576861,20.9292163 88.8831519,18.8897708 86.9579156,14.9089394 C85.4583247,11.8083536 84.4164135,10.2241737 82.7598223,8.52720045 C79.5202238,5.20855866 75.011936,3.39568183 68.0068673,2.59467315 C64.9255378,2.2423785 56.7221919,2.10110049 53.577428,2.34616791 C43.8164487,3.10674456 36.2369809,5.54055381 29.7915945,9.9838537 C27.2707086,11.7215896 25.8080683,12.9889991 23.5442506,15.3971098 C14.7209913,24.7828483 10.0492011,38.7723836 9.11893456,58.5938688 C8.55230614,70.6684733 9.72616104,87.2220654 11.9921989,99.1110276 C12.258148,100.506782 12.5126788,102.422139 12.5577173,103.367376 C12.6387548,105.072207 12.6351073,105.095125 12.1066982,106.138258 C11.677564,106.985599 11.3321633,107.383731 10.3319602,108.184579 C8.14711846,109.933938 4.53278085,114.315685 2.72427358,117.407758 C1.76292416,119.051363 0.828534399,121.280707 0.363559722,123.039561 C0.0552669214,124.205801 0.0026162529,124.807583 3.89673565e-05,127.186554 C-0.00325144206,130.283538 0.200214689,131.396737 1.22928167,133.912893 C2.58884098,137.236774 5.99002925,141.916137 7.99709593,143.224146 C11.5535496,145.541891 16.322236,144.248288 18.2549257,140.441804 C18.8631037,139.243805 19.0518213,138.391554 19.2673399,135.868521 C19.3789846,134.561168 19.5271041,133.746241 19.7124913,133.418829 C20.3925088,132.216575 21.9309534,131.954973 23.4992121,132.774811 C24.3119663,133.199464 24.4889484,133.396565 25.372432,134.860422 C26.6449275,136.968951 28.7227237,139.976552 30.5323505,142.32933 C31.9253398,144.14057 31.9776733,144.238139 31.9069438,144.901802 C31.863174,145.314995 31.5338223,146.136142 31.0862921,146.948123 C30.1607831,148.627743 29.606683,150.324716 28.8714775,153.731759 C27.9648403,157.933757 27.7810389,159.441486 27.7769157,162.710689 C27.7712066,167.273821 28.37653,170.196623 30.0483455,173.67897 C31.245354,176.172535 32.5698341,177.983448 34.8468144,180.23964 C38.5773957,183.936114 42.6216604,186.383187 51.4583995,190.290187 C57.8675013,193.12426 60.1127644,194.559631 60.5143046,196.079802 C61.0398592,198.071446 60.0096834,202.662736 58.0438491,207.09032 L57.5281269,208.251321 L55.8017578,208.349871 C53.8026204,208.464138 51.0815987,208.922514 48.3513791,209.605494 C39.7655233,211.75233 34.686008,215.240571 31.8945741,220.90708 C31.2667631,222.181365 31.0093778,222.908873 30.9270715,223.640638 C30.719958,225.482654 31.4686433,227.445158 32.7179535,228.336044 C33.9450934,229.21056 34.2150071,229.257053 38.0527926,229.257053 L41.6260564,229.257053 L41.6260564,230.063794 C41.6260564,231.224795 41.9169034,233.300256 42.2118737,234.241891 C42.5188966,235.222488 43.5972826,236.467634 44.5297693,236.917824 C45.5919796,237.430878 46.3439952,237.479662 48.9381479,237.204309 C53.6085109,236.708608 56.5655088,236.006966 59.0927381,234.794561 L60.4841733,234.127297 L60.987843,234.565046 C62.1975383,235.615709 62.5933695,235.725392 65.0968109,235.703128 C70.6263938,235.654016 75.1289726,234.216353 77.7259798,231.670075 C79.1015563,230.32114 79.8567437,228.925712 80.4279711,226.677051 C80.7854244,225.269182 80.8421982,224.653649 80.9148307,221.414895 L80.9972955,217.746906 L81.8536609,216.448719 C84.8785337,211.862668 85.9508934,207.061835 85.9394752,198.152971 C85.9286913,189.709032 85.4890904,188.121741 81.4330903,181.875059 C80.3185467,180.158442 79.1145604,178.216565 78.7577415,177.559777 C78.0412491,176.241292 77.5011046,174.816725 77.6565191,174.655966 C77.7117071,174.598996 78.5947149,174.822618 79.6188644,175.152649 C84.0481764,176.580163 90.9136893,178.407773 92.5931169,178.606839 C93.1018614,178.667083 93.8123275,178.604547 94.4980541,178.438877 C95.0997301,178.293506 95.6049856,178.194301 95.6211614,178.218529 C95.63702,178.243085 95.9246954,178.778403 96.2602637,179.40867 C99.4373792,185.375742 105.485539,192.439643 112.910544,198.855596 C114.952817,200.620343 115.253496,201.008326 117.271029,204.480851 C119.705644,208.670735 121.122453,211.957945 121.727935,214.821485 C122.014342,216.175658 122.074605,217.133664 122.143114,221.404091 L122.223041,226.402025 L121.101837,227.26279 C117.490513,230.034982 114.258844,234.647554 113.281953,238.424571 C112.77194,240.397225 112.761156,244.400811 113.260385,246.447787 C114.013669,249.536259 114.702885,250.681217 116.269716,251.446377 C117.09595,251.849748 117.309724,251.881179 119.134734,251.865136 C123.65,251.826174 127.256567,251.108488 129.973465,249.70815 L131.178086,249.087378 L132.443286,250.370831 C134.281617,252.235766 136.601099,253.716975 140.345953,255.41755 C141.419898,255.905065 141.797333,255.994449 142.804039,255.999847 C144.234803,256.007218 144.782877,255.753474 146.768693,254.164219 C148.477618,252.796622 150.199546,250.9844 150.812641,249.907871 C151.074308,249.448513 151.329632,249.089342 151.379745,249.109969 C151.430175,249.130596 152.644945,249.764465 154.079516,250.518493 C156.556632,251.820608 156.739323,251.889365 157.718434,251.889365 C159.93198,251.889365 161.315169,250.723125 162.849649,247.561968 C164.057441,245.074951 164.379054,243.869423 164.484989,241.434137 C164.550961,239.918877 164.509095,239.16092 164.307373,238.225178 C163.528715,234.612521 160.865101,231.28111 155.180738,226.811617 C154.35609,226.163343 153.583141,225.487565 153.462616,225.310436 C153.325914,225.10875 153.158765,223.962483 153.016988,222.252414 C152.554234,216.679217 151.822835,212.054859 150.892885,208.82429 C149.903307,205.387126 148.818895,203.270739 145.593569,198.480383 C144.653788,197.084955 143.485642,195.279936 142.997514,194.469593 C140.618087,190.518065 138.4832,185.242158 137.334401,180.472757 C137.193577,179.887672 137.04514,179.292111 137.004859,179.149032 C136.941108,178.923773 137.093667,178.899217 138.166662,178.96339 C138.846045,179.003989 141.612422,178.917225 144.314413,178.770872 C159.047069,177.971334 170.4085,177.714643 178.893178,177.989341 C191.944503,178.412357 197.816315,179.340241 202.194563,181.672064 C203.879699,182.569826 205.818574,184.522508 206.537286,186.04628 C207.358763,187.787127 207.521472,188.650183 207.647073,191.932155 C207.76284,194.955144 207.763792,194.962675 208.294421,195.989764 C208.915762,197.192674 209.62147,197.882529 210.799766,198.439456 C211.529897,198.78422 211.83121,198.83235 212.947974,198.781601 C215.18848,198.679776 216.126041,197.978788 218.056987,194.960055 C220.822729,190.636261 222.503743,186.441466 223.144748,182.262387 C223.53265,179.734771 223.387385,175.720708 222.828527,173.518211 C221.744115,169.245165 219.787796,165.825353 216.457169,162.380003 C211.378288,157.126688 207.96932,155.492578 193.435214,151.345258 C178.295943,147.025064 169.563553,143.882897 160.098496,139.349559 L158.600808,138.632201 L160.73284,137.421106 C165.531341,134.695734 170.594046,131.315539 171.651816,130.130964 C172.864366,128.773189 173.749277,126.107406 173.518693,124.507674 L173.432739,123.91244 L175.345605,122.439089 C182.678947,116.790915 190.459502,108.964473 195.851115,101.812172 C198.7894,97.9146664 201.669008,93.2028892 203.605028,89.1249804 C206.206476,83.6444412 206.400902,83.0187581 206.08373,81.1390893 C205.5734,78.1151178 203.190167,75.8599082 200.363527,75.7259969 C199.701588,75.6948928 198.897239,75.7440045 198.575943,75.8356797 C197.863257,76.0390022 197.841689,75.9096747 198.483329,75.2816997 C199.135118,74.6435749 202.222474,71.081339 203.724285,69.2347388 C210.68717,60.6726037 216.165053,50.6859017 219.07955,41.2410655 C219.891511,38.610315 220.866816,34.5762793 221.223635,32.3740449 C221.68861,29.5046115 221.108502,27.3355111 219.460791,25.7811256 C218.112175,24.5086412 217.38363,24.2198644 215.515802,24.2177362 C214.063469,24.2159354 213.843035,24.2588263 212.89913,24.7270246 C212.210866,25.068351 211.129942,25.9053782 209.648113,27.2444907 C204.458856,31.9331855 197.80014,37.1719968 191.331409,41.6552409 C188.177447,43.8413667 183.030057,47.2143588 182.959328,47.141346 C182.923804,47.104676 183.148362,45.9829646 183.45824,44.6490906 C184.107809,41.8533248 184.725026,38.2377209 184.97813,35.7464476 C185.178266,33.7744489 185.047591,32.4241388 184.51601,30.9691226 C184.128425,29.9078186 182.949813,28.467536 182.067756,27.9770737 C181.755024,27.8032183 181.499066,27.5954757 181.499066,27.51526 C181.499066,27.4352079 181.750584,26.3166069 182.057924,25.029389 C182.751897,22.123613 183.474098,17.7084705 183.727202,14.8269229 C183.9765,11.9869565 183.84741,6.07930924 183.50867,4.81664724 C182.619319,1.5030836 179.596666,-0.543564962 176.582577,0.126973552 Z M178.25249,4.84856985 C179.047641,5.22263735 179.174193,5.76499431 179.248728,9.12292546 C179.348003,13.5791581 178.884297,17.8513855 177.770071,22.7456946 C176.757974,27.1917775 174.971342,32.6086352 173.188833,36.6370066 C172.874833,37.3458522 172.61824,37.960076 172.61824,38.0013298 C172.61824,38.0429111 172.992821,37.7718145 173.450818,37.3988929 C174.802606,36.2981358 176.900701,34.1028425 177.474149,33.1890373 C178.044742,32.2799141 178.547777,31.8280864 178.989281,31.8280864 C179.563998,31.8280864 180.060055,32.2145956 180.309036,32.8563873 C180.52725,33.4195349 180.538668,33.7354869 180.38928,35.0850766 C179.950631,39.0457721 178.747913,44.7135906 177.502377,48.6886922 C176.991413,50.3201832 176.924806,50.4373964 176.178817,51.0201887 C173.256391,53.3035557 156.423737,61.7746704 138.125746,70.1711354 C126.584161,75.4670145 111.983449,81.7562598 111.761746,81.5273992 C111.704655,81.4684652 111.747473,80.9989572 111.856897,80.4842665 C112.424636,77.8152089 112.434785,76.9691779 111.925724,74.8452603 C111.780459,74.2392218 111.692919,73.7179829 111.73098,73.6868788 C111.769041,73.6557747 113.620058,72.0508041 115.844388,70.1197318 C118.068401,68.1889868 121.065679,65.6161882 122.505008,64.4024742 C144.766701,45.6296877 162.7878,26.1602679 174.916471,7.77906544 C176.950497,4.69665096 177.291775,4.39674214 178.25249,4.84856985 Z M68.0306552,7.33706007 C73.313478,8.03542855 76.454753,9.16859935 78.9153762,11.2638685 C80.3436033,12.4800381 81.3274719,13.9281786 83.0874614,17.404469 C83.9228933,19.0549498 84.925158,20.894347 85.3143285,21.4920364 C86.3800276,23.1282748 87.8739094,24.7522353 88.7204424,25.1950592 C89.7093858,25.7123692 91.5838745,26.0530407 94.5938402,26.2624203 C95.9456287,26.3565511 98.9073842,26.5819738 101.175167,26.7633597 C109.947837,27.4646749 111.644392,27.8064924 112.544844,29.0540935 C113.537911,30.429385 113.738047,38.7723836 112.892148,43.5329452 C112.374523,46.4462517 111.646295,48.0944406 110.562517,48.8068877 C109.649378,49.4070328 109.500941,49.6303274 109.500941,50.4056375 C109.500941,51.3233716 109.087665,52.886761 108.694372,53.4567842 C107.843715,54.6901429 106.530305,54.0068353 105.982865,52.0456411 C105.882322,51.6854886 105.746572,51.3273006 105.681551,51.2493767 C105.615897,51.1707979 105.204841,51.2028842 104.75858,51.3207523 C104.011639,51.5185088 103.946936,51.5758058 103.859713,52.1170168 C103.530806,54.1597365 102.831758,55.4016078 102.009964,55.4016078 C101.310282,55.4016078 100.590301,54.4095513 100.227773,52.9460225 L100.045081,52.2093468 L98.7795638,52.162527 L97.5140461,52.1153798 L97.3110557,53.1313373 C96.48165,57.276038 94.1038089,56.9450251 93.546537,52.6068243 L93.4447247,51.8151435 L92.5522017,51.6357221 C92.061536,51.5371713 91.4722298,51.4196306 91.2429142,51.3741204 C90.8527922,51.2971787 90.8191719,51.3400696 90.7167253,52.0453137 C90.4058963,54.1849471 89.7179495,55.4016078 88.8187659,55.4016078 C87.8815215,55.4016078 87.2880921,54.4000564 86.8878205,52.1425549 L86.6217129,50.6397367 L85.685103,50.6878661 L84.7488102,50.7359956 L84.6803009,52.0404026 C84.5426481,54.66395 84.1991505,55.6330877 83.289183,55.9634458 C82.5013268,56.2492759 81.5904078,55.2572194 81.0359905,53.5088426 C80.8666205,52.9741798 80.7131091,52.511875 80.6953474,52.4814257 C80.6775858,52.4509764 80.2646274,52.7292761 79.7784021,53.1005606 L78.8938084,53.7750281 L78.8868306,55.5296257 C78.8766811,58.0523304 78.4193186,59.1668387 77.3935832,59.1668387 C76.7703395,59.1668387 76.0357683,58.4272164 75.564133,57.3251497 C75.3811246,56.8975504 75.1971646,56.5475477 75.1549807,56.5475477 C75.1131139,56.5475477 74.6525797,56.7695326 74.1314655,57.0409566 C73.250995,57.4999874 73.184706,57.5739824 73.184706,58.0971858 C73.184706,59.1904124 72.8412083,60.3651644 72.3838458,60.8372916 C71.5163794,61.7327618 70.6368604,61.2851904 69.9181479,59.5819964 L69.4687147,58.5172546 L67.1638231,58.617115 C65.8669054,58.6731024 63.8607902,58.6341404 62.5768765,58.5283866 C61.3215083,58.4245971 60.2672274,58.367955 60.2339243,58.4023332 C60.1276715,58.512016 61.148015,61.3349569 61.7236828,62.5228054 C63.0941846,65.3516398 64.7273051,67.2362197 66.6947252,68.2590529 L67.7867496,68.8267842 L68.1917787,68.0017075 C68.5692138,67.233273 69.3389912,66.5358868 69.8122123,66.5342497 C69.9197337,66.5339223 70.2251707,66.7362625 70.490644,66.9837855 C70.8639559,67.3321513 71.0200047,67.674951 71.1801767,68.4980632 C71.3612821,69.4305308 71.4342318,69.5680436 71.7704345,69.6099523 C72.0999765,69.6512061 72.1922737,69.546107 72.4276156,68.8624721 C72.9978915,67.2044608 73.8577457,66.3702166 74.6681211,66.6884605 C75.229199,66.9084809 75.5416138,67.4686818 75.7817133,68.6837054 C75.9653561,69.6122441 76.0287905,69.7258559 76.3643589,69.7258559 C76.6875575,69.7258559 76.8020567,69.5562568 77.166805,68.5357155 C77.8871034,66.5218081 78.6974787,65.7484624 79.6283796,66.1862114 C80.1215826,66.4183461 80.5760906,67.4647529 80.7223071,68.7043324 C80.8193618,69.5248253 80.8843822,69.660701 81.2234394,69.7484473 C81.7090303,69.8741732 81.8035476,69.7674371 82.131821,68.72234 C82.5003753,67.5482428 83.2866456,66.6429503 83.9368489,66.6429503 C84.8373013,66.6429503 85.3203548,67.4182604 85.5350804,69.2072363 C85.6235715,69.947186 85.6812969,70.0434449 86.1053563,70.1603308 C86.4751793,70.2621557 86.6096604,70.2290872 86.726697,70.0080845 C86.8088446,69.8528915 87.1412413,69.4498481 87.4650742,69.1119595 C88.160316,68.3877256 88.6728666,68.3258448 89.3068941,68.8889924 C89.709703,69.2465256 89.7544243,69.4013912 89.83118,70.7113641 C89.9041297,71.9486518 89.9624894,72.1755479 90.2619001,72.3798526 C90.5841472,72.599873 90.6247453,72.583175 90.8461316,72.1411697 C91.2372051,71.3602935 92.3089305,70.4625315 92.8497094,70.4625315 C93.8560972,70.4625315 94.2316293,71.4231565 94.0590876,73.5568965 C93.9585439,74.8013872 93.9610813,74.813174 94.3994135,75.0803417 L94.8409174,75.3498012 L95.3122355,74.4448362 C96.0835987,72.9629722 96.9691439,72.3484211 97.8375619,72.6925304 C98.2816032,72.8683503 98.588626,73.7409017 98.6777514,75.0800142 L98.763388,76.3732892 L99.2337546,76.3235227 C99.6644746,76.2783399 99.7326667,76.1807713 100.043178,75.1654686 C100.229676,74.5558286 100.58142,73.8004906 100.825008,73.4874853 C101.710236,72.3494033 102.885677,72.9236829 103.329401,74.7110216 C103.527951,75.5115424 103.552373,75.5374079 104.105205,75.5374079 C104.419205,75.5374079 104.990433,75.7034055 105.374529,75.9057458 C106.975615,76.7504671 107.164015,77.9373334 106.176657,80.9567212 C104.831847,85.0699904 103.124508,87.9829695 101.62904,88.7153887 C100.840233,89.1017342 98.1772535,89.2284424 96.2999103,88.9688052 C93.9836005,88.6485968 90.4227065,87.6395149 85.8716003,86.01359 C70.7662668,80.6171956 70.4440197,80.5310864 61.3164335,79.4692913 C55.2337021,78.7617553 53.3125891,78.3852322 50.8104164,77.4098737 C47.5203875,76.1274033 42.1937949,71.3246057 40.7338505,68.3242077 C40.3713225,67.5790194 40.287589,67.4942199 40.1841908,67.7669536 C39.9317217,68.4335632 40.0313138,70.4258614 40.3624417,71.3396666 C41.3558255,74.0800999 44.7302223,77.5464042 48.2387829,79.4306567 C51.4124095,81.1351604 54.3878034,81.964166 62.1629666,83.3104816 C67.8244931,84.2910787 70.8982105,85.0156401 73.4070438,85.9615316 C76.9558853,87.2996619 81.9938511,90.3062807 86.2931224,93.6520976 L88.0629441,95.0291899 L90.4956561,94.8536974 C96.5295431,94.418895 102.712184,95.5445354 107.360028,97.9235065 C110.841311,99.7059341 114.442169,102.773779 116.762602,105.93559 C118.132152,107.801508 119.216247,109.683469 121.328298,113.862875 C124.106728,119.360767 125.427751,121.403486 127.959738,124.118709 C133.676135,130.24785 148.500771,139.438288 162.944483,145.807094 C171.021912,149.369002 178.575054,151.971268 192.045047,155.83374 C203.840053,159.2159 206.845578,160.396218 210.203165,162.96607 C213.112269,165.192795 215.928443,168.517657 217.164464,171.18475 C218.378282,173.804369 218.766818,175.564532 218.766818,178.444116 C218.766818,181.800082 218.130888,184.279896 216.294143,188.085071 C214.767275,191.24852 213.294326,193.487359 212.739909,193.487359 L212.344078,193.487359 L212.243534,190.868068 C212.13633,188.077868 211.863879,186.501055 211.18291,184.729104 C209.845394,181.250359 207.299769,178.488644 203.720162,176.633858 C195.906938,172.584761 178.309264,171.678814 143.574133,173.536546 C140.814099,173.684209 138.368066,173.756567 138.138433,173.696978 C137.446046,173.517556 136.523392,172.530739 136.308983,171.74004 C136.135173,171.099296 136.163718,170.842933 136.596658,169.161675 C137.359141,166.200894 137.590042,164.684325 137.678533,162.055866 C137.814283,158.031325 137.143146,155.013575 135.203003,150.923879 C133.785877,147.936578 130.978267,143.82691 129.219864,142.165625 C128.886515,141.850655 128.765673,141.776987 128.951853,142.001919 C129.138033,142.227178 129.682935,143.037521 130.1625,143.802682 C133.316145,148.835322 134.93753,154.721851 134.919451,161.073632 C134.911522,163.811446 134.678083,165.280213 133.892447,167.540007 C133.626339,168.305495 133.114106,169.778846 132.754115,170.814121 L132.099471,172.696736 L132.11089,175.39788 C132.120722,177.696308 132.185425,178.392057 132.545733,180.063492 C133.461727,184.314602 135.139251,189.219224 136.94079,192.914389 C138.193938,195.484896 139.494979,197.675933 141.948308,201.346214 C143.091397,203.056612 144.322343,204.98441 144.683919,205.630392 C146.64119,209.127146 147.737972,214.046829 148.436702,222.463266 C148.571184,224.083953 148.757998,225.704312 148.851564,226.063809 C149.297508,227.776171 150.061576,228.712568 152.707745,230.79032 C156.257856,233.578556 158.93035,236.52755 159.630984,238.430465 C160.008736,239.457227 160.030304,241.458038 159.676339,242.692051 C159.39691,243.667083 158.486626,245.655124 158.03973,246.266729 L157.756495,246.654384 L152.994786,244.094682 C150.376211,242.686813 148.195017,241.53498 148.148076,241.53498 C148.101134,241.53498 148.017718,242.032318 147.963164,242.639993 C147.82234,244.204037 147.465204,245.842076 147.107116,246.566638 C146.549527,247.695225 143.347038,250.704135 142.706984,250.701191 C142.23408,250.698569 138.903136,248.976058 137.475226,247.995134 C135.351757,246.536516 133.909891,244.6097 133.437939,242.599067 C133.33232,242.148876 133.192447,241.719312 133.127427,241.644335 C133.062407,241.569685 132.590454,241.836198 132.078538,242.23695 C127.978134,245.447546 125.124534,246.461866 120.06056,246.509996 L118.143888,246.528003 L117.796584,245.136505 C117.378551,243.460813 117.328755,241.263228 117.674473,239.748623 C118.464549,236.289522 122.110445,231.739486 125.464226,230.027452 C126.338036,229.581517 126.450949,229.466923 126.532779,228.942738 C126.743699,227.589874 126.825212,218.494058 126.643155,216.579357 C126.105865,210.923325 124.25231,206.289144 119.456981,198.614621 C118.462012,197.022092 118.170847,196.698937 116.192643,194.991487 C111.339272,190.802258 107.0289,186.329819 104.093152,182.437225 C98.4078378,174.898905 96.2237889,168.572008 95.5317188,157.635812 C95.3192133,154.276244 95.432761,147.457902 95.7676951,143.47527 C95.8850488,142.079843 95.9557783,140.90902 95.9253297,140.873332 C95.8165396,140.747606 94.8815155,143.08696 94.5047147,144.42771 C92.504943,151.542687 92.5591795,158.490356 94.6927979,168.429256 C95.3334861,171.414593 95.3135042,171.904728 94.5177188,172.726203 C93.7035373,173.566668 93.4564601,173.548006 88.5675654,172.27765 C64.1988959,165.945513 45.9744894,154.606602 33.4588682,137.991129 C26.5328071,128.796108 21.1029749,117.071506 17.9942101,104.597788 C14.0906113,88.9357366 12.5772234,67.0728414 14.2826591,50.9815542 C15.4279685,40.1756688 18.3572138,30.7299486 22.6439568,24.0186701 C29.088582,13.9293246 38.8095658,8.46728417 52.7270889,7.11589368 C55.1008068,6.88539607 65.7809516,7.03977053 68.0306552,7.33706007 Z M62.064326,26.3617897 C60.4353287,26.9440908 58.9963177,28.5407124 58.4945511,30.3226489 C57.749196,32.9690169 59.1501463,35.9746534 61.687208,37.1723242 C62.4734783,37.5432813 62.8588427,37.6212052 63.9074145,37.6199117 C65.5779613,37.6179311 66.8070042,37.0724637 67.9497762,35.8253538 C69.1071382,34.5618732 69.430654,33.7142052 69.4455611,31.9069926 C69.4566621,30.5559295 69.4138438,30.3382009 68.9364994,29.3373043 C68.3582942,28.1239177 67.4112176,27.1516696 66.2348253,26.5638025 C65.2677668,26.0805433 63.1392231,25.9774087 62.064326,26.3617897 Z M216.26972,29.1097534 C216.814305,29.5365341 216.909457,30.2273722 216.624953,31.6958122 C214.523369,42.5500562 210.050288,52.4598165 202.821295,62.2772469 C198.12651,68.6529288 193.685145,73.4475411 183.005635,83.6696519 C179.227161,87.2859106 177.055164,89.4687623 177.455119,89.2477597 C177.542341,89.1996302 182.63042,87.1592024 188.761679,84.7140942 C196.732537,81.5349297 200.009562,80.2989517 200.259177,80.377203 C200.663572,80.5035838 201.281741,81.0516705 201.50725,81.4838535 C201.67884,81.8129019 201.525012,82.1904073 199.398054,86.6618645 C194.608434,96.730092 185.877313,107.267827 174.796897,116.352511 C171.445337,119.100475 166.863148,122.461353 166.003611,122.802515 C165.758754,122.899757 165.773978,122.930861 166.116207,123.029084 C166.334104,123.091947 166.820647,123.150554 167.19713,123.159394 C168.062059,123.180021 168.426173,123.382361 168.745249,124.019176 C169.045611,124.618994 168.939041,125.478776 168.481678,126.141784 C167.858752,127.044785 161.03796,131.449123 156.722513,133.734781 L154.55908,134.880721 L151.89293,133.512142 C145.11115,130.031431 139.062991,126.29665 135.210615,123.211452 C133.448723,121.800309 130.879309,119.234059 129.355931,117.364212 C127.650178,115.270416 126.439848,113.288268 124.408042,109.26078 C121.632784,103.759942 119.825218,101.185506 116.361696,97.8023643 C113.513488,95.0196949 109.594507,92.1839849 107.320381,91.2593752 C107.036829,91.1441264 106.804976,90.9967913 106.804976,90.9322912 C106.804976,90.7669485 109.099401,89.0748864 110.996726,87.8412003 C113.427535,86.2604582 117.978324,84.0291496 121.077732,82.8982707 C124.426438,81.6763714 130.337579,79.3265399 134.571513,77.53429 C166.203112,64.1438192 193.857053,47.6517804 212.026906,31.3418805 C214.783451,28.8673053 214.764737,28.8808928 215.408915,28.8860157 C215.729259,28.8894055 216.116526,28.9899208 216.26972,29.1097534 Z M57.9217378,102.390707 C54.5057915,102.984304 50.8519659,105.6789 48.6219271,109.248994 C47.7214748,110.690913 47.324375,112.086668 47.2219283,114.171951 C47.1175786,116.292267 47.4128661,117.959119 48.3202962,120.369849 C49.4250075,123.305092 50.5766603,124.650425 52.6890282,125.472228 C53.9627924,125.967929 55.908962,125.878873 57.2020737,125.265959 C58.8941882,124.463473 59.7397697,123.409863 60.8761983,120.687765 C61.24729,119.798516 61.3202396,119.727795 62.4290742,119.18462 C63.7355071,118.544858 67.4756036,116.044744 67.4756036,115.811627 C67.4756036,115.530381 66.2973082,115.399744 63.8281214,115.407274 C61.6735696,115.413495 61.2606112,115.459333 60.4851248,115.776922 C58.8485154,116.447133 57.9667763,117.530537 57.0856715,119.953709 C56.4966824,121.57374 55.227993,122.310089 53.9164853,121.793106 C53.0490189,121.450961 52.6855393,121.032202 52.1003563,119.699965 C51.2411364,117.743355 50.9410914,116.29194 51.0083319,114.415873 C51.0635199,112.871473 51.1129988,112.657019 51.6861292,111.459675 C52.4590783,109.845537 54.0747543,108.130884 56.2045666,106.664081 C59.3103184,104.52543 60.9171135,103.967521 64.0152531,103.95115 C66.3176073,103.939036 66.3087265,103.865368 63.9074145,103.057317 C61.6941858,102.312784 59.6687231,102.087197 57.9217378,102.390707 Z M15.8705825,111.982879 C16.7266307,112.582696 16.78055,112.682229 17.5454112,115.072333 C17.9198331,116.242828 18.8167966,118.440741 19.5386809,119.956328 C21.3483077,123.755937 21.3189693,124.323341 19.2203984,126.093655 C15.9611353,128.842601 15.0559253,130.650894 14.6815034,135.160985 C14.5181596,137.126436 14.3143764,137.783551 13.673371,138.411526 C12.953707,139.116442 11.6271336,139.303722 10.7330247,138.826356 C9.66891143,138.258625 7.09933957,134.960282 6.0009717,132.752547 C4.82061477,130.380452 4.59605674,129.451586 4.59605674,126.940995 C4.59605674,125.060344 4.65124473,124.561042 4.96635546,123.589612 C5.69997513,121.328509 7.00482221,118.97966 8.87931084,116.545684 C10.3460744,114.641132 12.5973638,112.219925 13.2137883,111.883673 C14.0695193,111.417112 15.1185669,111.456074 15.8705825,111.982879 Z M37.5821088,150.187203 C37.8114244,150.277242 39.3684235,151.467382 41.0415077,152.831705 C47.8527841,158.385585 53.3211527,162.398666 56.7710365,164.374921 C60.4499187,166.482468 64.7679031,168.584777 69.2200515,170.435306 C71.8411639,171.524931 72.4200034,172.040276 72.6978464,173.531963 C73.4498621,177.569927 74.0340936,178.88874 77.3650377,184.065114 C79.8776771,187.97015 80.4831591,189.119691 80.8624973,190.704362 C81.3858317,192.890815 81.5678886,197.978134 81.2697466,202.081908 C80.865669,207.649538 80.0457784,210.286837 77.5645391,214.005248 L76.4357227,215.696983 L76.3345447,219.980506 C76.2298778,224.423151 76.127114,225.181108 75.4404358,226.567041 C74.3335043,228.801951 71.0881967,230.09097 65.5617855,230.491394 L64.044433,230.601076 L63.865865,229.724596 C63.7678587,229.242319 63.6403554,228.240113 63.58263,227.497217 C63.5249047,226.754648 63.4649591,226.146645 63.4494176,226.146645 C63.4338762,226.146645 62.6025674,226.704226 61.602523,227.385897 C59.3642377,228.911306 56.3729852,230.447193 54.7887092,230.884615 C52.3350639,231.562356 46.7188929,232.315402 46.51844,231.993884 C46.2916618,231.629803 46.2082454,229.719358 46.3817387,228.857283 C46.5561835,227.989316 47.5016743,226.284485 48.6241473,224.813425 C48.8747135,224.485359 49.0796068,224.172354 49.0796068,224.117676 C49.0796068,224.063326 46.0100127,224.018471 42.2581809,224.018471 L35.4364378,224.018471 L35.9033155,223.064066 C38.3506174,218.059256 43.7815597,215.036594 53.3205184,213.37007 C54.9352429,213.088169 55.7760668,213.031527 57.4846743,213.089806 C58.6620181,213.130078 59.7467475,213.217496 59.8945499,213.284616 C60.5672724,213.588454 64.0634633,204.944793 64.8893801,200.935968 C65.08793,199.971741 65.176104,198.84119 65.176104,197.25259 C65.176104,195.242611 65.1291625,194.826472 64.7939113,193.867811 C63.6977636,190.731537 61.2336516,188.927501 53.2028475,185.381963 C45.0730856,181.792879 41.3145931,179.546182 38.0055339,176.298261 C36.1031341,174.431362 35.1408332,173.119752 34.1614049,171.059679 C31.8574649,166.214646 31.7027165,160.586116 33.6786686,153.498642 C33.9349439,152.579598 34.2952517,151.575755 34.4795288,151.267988 C35.0678835,150.285427 36.5322683,149.77532 37.5821088,150.187203 Z" id="Shape" fill="#000000"></path>
            <path d="M178.25249,4.84856985 C179.047641,5.22263735 179.174193,5.76499431 179.248728,9.12292546 C179.348003,13.5791581 178.884297,17.8513855 177.770071,22.7456946 C176.757974,27.1917775 174.971342,32.6086352 173.188833,36.6370066 C172.874833,37.3458522 172.61824,37.960076 172.61824,38.0013298 C172.61824,38.0429111 172.992821,37.7718145 173.450818,37.3988929 C174.802606,36.2981358 176.900701,34.1028425 177.474149,33.1890373 C178.044742,32.2799141 178.547777,31.8280864 178.989281,31.8280864 C179.563998,31.8280864 180.060055,32.2145956 180.309036,32.8563873 C180.52725,33.4195349 180.538668,33.7354869 180.38928,35.0850766 C179.950631,39.0457721 178.747913,44.7135906 177.502377,48.6886922 C176.991413,50.3201832 176.924806,50.4373964 176.178817,51.0201887 C173.256391,53.3035557 156.423737,61.7746704 138.125746,70.1711354 C126.584161,75.4670145 111.983449,81.7562598 111.761746,81.5273992 C111.704655,81.4684652 111.747473,80.9989572 111.856897,80.4842665 C112.424636,77.8152089 112.434785,76.9691779 111.925724,74.8452603 C111.780459,74.2392218 111.692919,73.7179829 111.73098,73.6868788 C111.769041,73.6557747 113.620058,72.0508041 115.844388,70.1197318 C118.068401,68.1889868 121.065679,65.6161882 122.505008,64.4024742 C144.766701,45.6296877 162.7878,26.1602679 174.916471,7.77906544 C176.950497,4.69665096 177.291775,4.39674214 178.25249,4.84856985 Z" id="Path" fill="#000000"></path>
            <path d="M68.0306552,7.33706007 C73.313478,8.03542855 76.454753,9.16859935 78.9153762,11.2638685 C80.3436033,12.4800381 81.3274719,13.9281786 83.0874614,17.404469 C83.9228933,19.0549498 84.925158,20.894347 85.3143285,21.4920364 C86.3800276,23.1282748 87.8739094,24.7522353 88.7204424,25.1950592 C89.7093858,25.7123692 91.5838745,26.0530407 94.5938402,26.2624203 C95.9456287,26.3565511 98.9073842,26.5819738 101.175167,26.7633597 C109.947837,27.4646749 111.644392,27.8064924 112.544844,29.0540935 C113.537911,30.429385 113.738047,38.7723836 112.892148,43.5329452 C112.374523,46.4462517 111.646295,48.0944406 110.562517,48.8068877 C109.649378,49.4070328 109.500941,49.6303274 109.500941,50.4056375 C109.500941,51.3233716 109.087665,52.886761 108.694372,53.4567842 C107.843715,54.6901429 106.530305,54.0068353 105.982865,52.0456411 C105.882322,51.6854886 105.746572,51.3273006 105.681551,51.2493767 C105.615897,51.1707979 105.204841,51.2028842 104.75858,51.3207523 C104.011639,51.5185088 103.946936,51.5758058 103.859713,52.1170168 C103.530806,54.1597365 102.831758,55.4016078 102.009964,55.4016078 C101.310282,55.4016078 100.590301,54.4095513 100.227773,52.9460225 L100.045081,52.2093468 L98.7795638,52.162527 L97.5140461,52.1153798 L97.3110557,53.1313373 C96.48165,57.276038 94.1038089,56.9450251 93.546537,52.6068243 L93.4447247,51.8151435 L92.5522017,51.6357221 C92.061536,51.5371713 91.4722298,51.4196306 91.2429142,51.3741204 C90.8527922,51.2971787 90.8191719,51.3400696 90.7167253,52.0453137 C90.4058963,54.1849471 89.7179495,55.4016078 88.8187659,55.4016078 C87.8815215,55.4016078 87.2880921,54.4000564 86.8878205,52.1425549 L86.6217129,50.6397367 L85.685103,50.6878661 L84.7488102,50.7359956 L84.6803009,52.0404026 C84.5426481,54.66395 84.1991505,55.6330877 83.289183,55.9634458 C82.5013268,56.2492759 81.5904078,55.2572194 81.0359905,53.5088426 C80.8666205,52.9741798 80.7131091,52.511875 80.6953474,52.4814257 C80.6775858,52.4509764 80.2646274,52.7292761 79.7784021,53.1005606 L78.8938084,53.7750281 L78.8868306,55.5296257 C78.8766811,58.0523304 78.4193186,59.1668387 77.3935832,59.1668387 C76.7703395,59.1668387 76.0357683,58.4272164 75.564133,57.3251497 C75.3811246,56.8975504 75.1971646,56.5475477 75.1549807,56.5475477 C75.1131139,56.5475477 74.6525797,56.7695326 74.1314655,57.0409566 C73.250995,57.4999874 73.184706,57.5739824 73.184706,58.0971858 C73.184706,59.1904124 72.8412083,60.3651644 72.3838458,60.8372916 C71.5163794,61.7327618 70.6368604,61.2851904 69.9181479,59.5819964 L69.4687147,58.5172546 L67.1638231,58.617115 C65.8669054,58.6731024 63.8607902,58.6341404 62.5768765,58.5283866 C61.3215083,58.4245971 60.2672274,58.367955 60.2339243,58.4023332 C60.1276715,58.512016 61.148015,61.3349569 61.7236828,62.5228054 C63.0941846,65.3516398 64.7273051,67.2362197 66.6947252,68.2590529 L67.7867496,68.8267842 L68.1917787,68.0017075 C68.5692138,67.233273 69.3389912,66.5358868 69.8122123,66.5342497 C69.9197337,66.5339223 70.2251707,66.7362625 70.490644,66.9837855 C70.8639559,67.3321513 71.0200047,67.674951 71.1801767,68.4980632 C71.3612821,69.4305308 71.4342318,69.5680436 71.7704345,69.6099523 C72.0999765,69.6512061 72.1922737,69.546107 72.4276156,68.8624721 C72.9978915,67.2044608 73.8577457,66.3702166 74.6681211,66.6884605 C75.229199,66.9084809 75.5416138,67.4686818 75.7817133,68.6837054 C75.9653561,69.6122441 76.0287905,69.7258559 76.3643589,69.7258559 C76.6875575,69.7258559 76.8020567,69.5562568 77.166805,68.5357155 C77.8871034,66.5218081 78.6974787,65.7484624 79.6283796,66.1862114 C80.1215826,66.4183461 80.5760906,67.4647529 80.7223071,68.7043324 C80.8193618,69.5248253 80.8843822,69.660701 81.2234394,69.7484473 C81.7090303,69.8741732 81.8035476,69.7674371 82.131821,68.72234 C82.5003753,67.5482428 83.2866456,66.6429503 83.9368489,66.6429503 C84.8373013,66.6429503 85.3203548,67.4182604 85.5350804,69.2072363 C85.6235715,69.947186 85.6812969,70.0434449 86.1053563,70.1603308 C86.4751793,70.2621557 86.6096604,70.2290872 86.726697,70.0080845 C86.8088446,69.8528915 87.1412413,69.4498481 87.4650742,69.1119595 C88.160316,68.3877256 88.6728666,68.3258448 89.3068941,68.8889924 C89.709703,69.2465256 89.7544243,69.4013912 89.83118,70.7113641 C89.9041297,71.9486518 89.9624894,72.1755479 90.2619001,72.3798526 C90.5841472,72.599873 90.6247453,72.583175 90.8461316,72.1411697 C91.2372051,71.3602935 92.3089305,70.4625315 92.8497094,70.4625315 C93.8560972,70.4625315 94.2316293,71.4231565 94.0590876,73.5568965 C93.9585439,74.8013872 93.9610813,74.813174 94.3994135,75.0803417 L94.8409174,75.3498012 L95.3122355,74.4448362 C96.0835987,72.9629722 96.9691439,72.3484211 97.8375619,72.6925304 C98.2816032,72.8683503 98.588626,73.7409017 98.6777514,75.0800142 L98.763388,76.3732892 L99.2337546,76.3235227 C99.6644746,76.2783399 99.7326667,76.1807713 100.043178,75.1654686 C100.229676,74.5558286 100.58142,73.8004906 100.825008,73.4874853 C101.710236,72.3494033 102.885677,72.9236829 103.329401,74.7110216 C103.527951,75.5115424 103.552373,75.5374079 104.105205,75.5374079 C104.419205,75.5374079 104.990433,75.7034055 105.374529,75.9057458 C106.975615,76.7504671 107.164015,77.9373334 106.176657,80.9567212 C104.831847,85.0699904 103.124508,87.9829695 101.62904,88.7153887 C100.840233,89.1017342 98.1772535,89.2284424 96.2999103,88.9688052 C93.9836005,88.6485968 90.4227065,87.6395149 85.8716003,86.01359 C70.7662668,80.6171956 70.4440197,80.5310864 61.3164335,79.4692913 C55.2337021,78.7617553 53.3125891,78.3852322 50.8104164,77.4098737 C47.5203875,76.1274033 42.1937949,71.3246057 40.7338505,68.3242077 C40.3713225,67.5790194 40.287589,67.4942199 40.1841908,67.7669536 C39.9317217,68.4335632 40.0313138,70.4258614 40.3624417,71.3396666 C41.3558255,74.0800999 44.7302223,77.5464042 48.2387829,79.4306567 C51.4124095,81.1351604 54.3878034,81.964166 62.1629666,83.3104816 C67.8244931,84.2910787 70.8982105,85.0156401 73.4070438,85.9615316 C76.9558853,87.2996619 81.9938511,90.3062807 86.2931224,93.6520976 L88.0629441,95.0291899 L90.4956561,94.8536974 C96.5295431,94.418895 102.712184,95.5445354 107.360028,97.9235065 C110.841311,99.7059341 114.442169,102.773779 116.762602,105.93559 C118.132152,107.801508 119.216247,109.683469 121.328298,113.862875 C124.106728,119.360767 125.427751,121.403486 127.959738,124.118709 C133.676135,130.24785 148.500771,139.438288 162.944483,145.807094 C171.021912,149.369002 178.575054,151.971268 192.045047,155.83374 C203.840053,159.2159 206.845578,160.396218 210.203165,162.96607 C213.112269,165.192795 215.928443,168.517657 217.164464,171.18475 C218.378282,173.804369 218.766818,175.564532 218.766818,178.444116 C218.766818,181.800082 218.130888,184.279896 216.294143,188.085071 C214.767275,191.24852 213.294326,193.487359 212.739909,193.487359 L212.344078,193.487359 L212.243534,190.868068 C212.13633,188.077868 211.863879,186.501055 211.18291,184.729104 C209.845394,181.250359 207.299769,178.488644 203.720162,176.633858 C195.906938,172.584761 178.309264,171.678814 143.574133,173.536546 C140.814099,173.684209 138.368066,173.756567 138.138433,173.696978 C137.446046,173.517556 136.523392,172.530739 136.308983,171.74004 C136.135173,171.099296 136.163718,170.842933 136.596658,169.161675 C137.359141,166.200894 137.590042,164.684325 137.678533,162.055866 C137.814283,158.031325 137.143146,155.013575 135.203003,150.923879 C133.785877,147.936578 130.978267,143.82691 129.219864,142.165625 C128.886515,141.850655 128.765673,141.776987 128.951853,142.001919 C129.138033,142.227178 129.682935,143.037521 130.1625,143.802682 C133.316145,148.835322 134.93753,154.721851 134.919451,161.073632 C134.911522,163.811446 134.678083,165.280213 133.892447,167.540007 C133.626339,168.305495 133.114106,169.778846 132.754115,170.814121 L132.099471,172.696736 L132.11089,175.39788 C132.120722,177.696308 132.185425,178.392057 132.545733,180.063492 C133.461727,184.314602 135.139251,189.219224 136.94079,192.914389 C138.193938,195.484896 139.494979,197.675933 141.948308,201.346214 C143.091397,203.056612 144.322343,204.98441 144.683919,205.630392 C146.64119,209.127146 147.737972,214.046829 148.436702,222.463266 C148.571184,224.083953 148.757998,225.704312 148.851564,226.063809 C149.297508,227.776171 150.061576,228.712568 152.707745,230.79032 C156.257856,233.578556 158.93035,236.52755 159.630984,238.430465 C160.008736,239.457227 160.030304,241.458038 159.676339,242.692051 C159.39691,243.667083 158.486626,245.655124 158.03973,246.266729 L157.756495,246.654384 L152.994786,244.094682 C150.376211,242.686813 148.195017,241.53498 148.148076,241.53498 C148.101134,241.53498 148.017718,242.032318 147.963164,242.639993 C147.82234,244.204037 147.465204,245.842076 147.107116,246.566638 C146.549527,247.695225 143.347038,250.704135 142.706984,250.701191 C142.23408,250.698569 138.903136,248.976058 137.475226,247.995134 C135.351757,246.536516 133.909891,244.6097 133.437939,242.599067 C133.33232,242.148876 133.192447,241.719312 133.127427,241.644335 C133.062407,241.569685 132.590454,241.836198 132.078538,242.23695 C127.978134,245.447546 125.124534,246.461866 120.06056,246.509996 L118.143888,246.528003 L117.796584,245.136505 C117.378551,243.460813 117.328755,241.263228 117.674473,239.748623 C118.464549,236.289522 122.110445,231.739486 125.464226,230.027452 C126.338036,229.581517 126.450949,229.466923 126.532779,228.942738 C126.743699,227.589874 126.825212,218.494058 126.643155,216.579357 C126.105865,210.923325 124.25231,206.289144 119.456981,198.614621 C118.462012,197.022092 118.170847,196.698937 116.192643,194.991487 C111.339272,190.802258 107.0289,186.329819 104.093152,182.437225 C98.4078378,174.898905 96.2237889,168.572008 95.5317188,157.635812 C95.3192133,154.276244 95.432761,147.457902 95.7676951,143.47527 C95.8850488,142.079843 95.9557783,140.90902 95.9253297,140.873332 C95.8165396,140.747606 94.8815155,143.08696 94.5047147,144.42771 C92.504943,151.542687 92.5591795,158.490356 94.6927979,168.429256 C95.3334861,171.414593 95.3135042,171.904728 94.5177188,172.726203 C93.7035373,173.566668 93.4564601,173.548006 88.5675654,172.27765 C64.1988959,165.945513 45.9744894,154.606602 33.4588682,137.991129 C26.5328071,128.796108 21.1029749,117.071506 17.9942101,104.597788 C14.0906113,88.9357366 12.5772234,67.0728414 14.2826591,50.9815542 C15.4279685,40.1756688 18.3572138,30.7299486 22.6439568,24.0186701 C29.088582,13.9293246 38.8095658,8.46728417 52.7270889,7.11589368 C55.1008068,6.88539607 65.7809516,7.03977053 68.0306552,7.33706007 Z" id="Path" fill="#000000"></path>
            <path d="M216.26972,29.1097534 C216.814305,29.5365341 216.909457,30.2273722 216.624953,31.6958122 C214.523369,42.5500562 210.050288,52.4598165 202.821295,62.2772469 C198.12651,68.6529288 193.685145,73.4475411 183.005635,83.6696519 C179.227161,87.2859106 177.055164,89.4687623 177.455119,89.2477597 C177.542341,89.1996302 182.63042,87.1592024 188.761679,84.7140942 C196.732537,81.5349297 200.009562,80.2989517 200.259177,80.377203 C200.663572,80.5035838 201.281741,81.0516705 201.50725,81.4838535 C201.67884,81.8129019 201.525012,82.1904073 199.398054,86.6618645 C194.608434,96.730092 185.877313,107.267827 174.796897,116.352511 C171.445337,119.100475 166.863148,122.461353 166.003611,122.802515 C165.758754,122.899757 165.773978,122.930861 166.116207,123.029084 C166.334104,123.091947 166.820647,123.150554 167.19713,123.159394 C168.062059,123.180021 168.426173,123.382361 168.745249,124.019176 C169.045611,124.618994 168.939041,125.478776 168.481678,126.141784 C167.858752,127.044785 161.03796,131.449123 156.722513,133.734781 L154.55908,134.880721 L151.89293,133.512142 C145.11115,130.031431 139.062991,126.29665 135.210615,123.211452 C133.448723,121.800309 130.879309,119.234059 129.355931,117.364212 C127.650178,115.270416 126.439848,113.288268 124.408042,109.26078 C121.632784,103.759942 119.825218,101.185506 116.361696,97.8023643 C113.513488,95.0196949 109.594507,92.1839849 107.320381,91.2593752 C107.036829,91.1441264 106.804976,90.9967913 106.804976,90.9322912 C106.804976,90.7669485 109.099401,89.0748864 110.996726,87.8412003 C113.427535,86.2604582 117.978324,84.0291496 121.077732,82.8982707 C124.426438,81.6763714 130.337579,79.3265399 134.571513,77.53429 C166.203112,64.1438192 193.857053,47.6517804 212.026906,31.3418805 C214.783451,28.8673053 214.764737,28.8808928 215.408915,28.8860157 C215.729259,28.8894055 216.116526,28.9899208 216.26972,29.1097534 Z" id="Path" fill="#000000"></path>
            <path d="M15.8705825,111.982879 C16.7266307,112.582696 16.78055,112.682229 17.5454112,115.072333 C17.9198331,116.242828 18.8167966,118.440741 19.5386809,119.956328 C21.3483077,123.755937 21.3189693,124.323341 19.2203984,126.093655 C15.9611353,128.842601 15.0559253,130.650894 14.6815034,135.160985 C14.5181596,137.126436 14.3143764,137.783551 13.673371,138.411526 C12.953707,139.116442 11.6271336,139.303722 10.7330247,138.826356 C9.66891143,138.258625 7.09933957,134.960282 6.0009717,132.752547 C4.82061477,130.380452 4.59605674,129.451586 4.59605674,126.940995 C4.59605674,125.060344 4.65124473,124.561042 4.96635546,123.589612 C5.69997513,121.328509 7.00482221,118.97966 8.87931084,116.545684 C10.3460744,114.641132 12.5973638,112.219925 13.2137883,111.883673 C14.0695193,111.417112 15.1185669,111.456074 15.8705825,111.982879 Z" id="Path" fill="#000000"></path>
            <path d="M37.5821088,150.187203 C37.8114244,150.277242 39.3684235,151.467382 41.0415077,152.831705 C47.8527841,158.385585 53.3211527,162.398666 56.7710365,164.374921 C60.4499187,166.482468 64.7679031,168.584777 69.2200515,170.435306 C71.8411639,171.524931 72.4200034,172.040276 72.6978464,173.531963 C73.4498621,177.569927 74.0340936,178.88874 77.3650377,184.065114 C79.8776771,187.97015 80.4831591,189.119691 80.8624973,190.704362 C81.3858317,192.890815 81.5678886,197.978134 81.2697466,202.081908 C80.865669,207.649538 80.0457784,210.286837 77.5645391,214.005248 L76.4357227,215.696983 L76.3345447,219.980506 C76.2298778,224.423151 76.127114,225.181108 75.4404358,226.567041 C74.3335043,228.801951 71.0881967,230.09097 65.5617855,230.491394 L64.044433,230.601076 L63.865865,229.724596 C63.7678587,229.242319 63.6403554,228.240113 63.58263,227.497217 C63.5249047,226.754648 63.4649591,226.146645 63.4494176,226.146645 C63.4338762,226.146645 62.6025674,226.704226 61.602523,227.385897 C59.3642377,228.911306 56.3729852,230.447193 54.7887092,230.884615 C52.3350639,231.562356 46.7188929,232.315402 46.51844,231.993884 C46.2916618,231.629803 46.2082454,229.719358 46.3817387,228.857283 C46.5561835,227.989316 47.5016743,226.284485 48.6241473,224.813425 C48.8747135,224.485359 49.0796068,224.172354 49.0796068,224.117676 C49.0796068,224.063326 46.0100127,224.018471 42.2581809,224.018471 L35.4364378,224.018471 L35.9033155,223.064066 C38.3506174,218.059256 43.7815597,215.036594 53.3205184,213.37007 C54.9352429,213.088169 55.7760668,213.031527 57.4846743,213.089806 C58.6620181,213.130078 59.7467475,213.217496 59.8945499,213.284616 C60.5672724,213.588454 64.0634633,204.944793 64.8893801,200.935968 C65.08793,199.971741 65.176104,198.84119 65.176104,197.25259 C65.176104,195.242611 65.1291625,194.826472 64.7939113,193.867811 C63.6977636,190.731537 61.2336516,188.927501 53.2028475,185.381963 C45.0730856,181.792879 41.3145931,179.546182 38.0055339,176.298261 C36.1031341,174.431362 35.1408332,173.119752 34.1614049,171.059679 C31.8574649,166.214646 31.7027165,160.586116 33.6786686,153.498642 C33.9349439,152.579598 34.2952517,151.575755 34.4795288,151.267988 C35.0678835,150.285427 36.5322683,149.77532 37.5821088,150.187203 Z" id="Path" fill="#000000"></path>
            <path d="M64.6426402,29.7856657 C63.1528492,30.3024395 61.8368091,31.7193906 61.3779209,33.3008028 C60.6962603,35.6493706 61.9774922,38.3167778 64.2977489,39.3796727 C65.0168283,39.7088854 65.3692614,39.7780404 66.3282273,39.7768924 C67.8560173,39.7751347 68.9800322,39.2910497 70.0251484,38.1842791 C71.0836078,37.0629802 71.3794775,36.3107016 71.3931107,34.7068577 C71.4032631,33.507832 71.3641039,33.3146048 70.927551,32.4263407 C70.3987564,31.3494986 69.5326124,30.4866592 68.4567489,29.9649457 C67.5723305,29.5360685 65.6256818,29.4445398 64.6426402,29.7856657 Z" id="Path" fill="#000000"></path>
            <path d="M57.7607446,103.153699 C53.9800831,103.796881 49.9361444,106.716563 47.4680079,110.584876 C46.4714157,112.147243 46.0319182,113.659589 45.9185334,115.919062 C45.8030425,118.216493 46.1298573,120.022581 47.1341723,122.634686 C48.3568319,125.815117 49.6314449,127.27283 51.9693469,128.16328 C53.3791089,128.700388 55.5330679,128.603893 56.9642431,127.939781 C58.837022,127.070262 59.7728849,125.928641 61.0306481,122.979159 C61.4413606,122.015628 61.522099,121.939 62.7493221,121.350451 C64.1952408,120.657248 68.3346614,117.948294 68.3346614,117.695704 C68.3346614,117.390965 67.0305613,117.249415 64.2977434,117.257574 C61.9131535,117.264315 61.4561042,117.313981 60.5978203,117.6581 C58.7864728,118.384295 57.8105917,119.558199 56.8354128,122.183785 C56.1835383,123.939142 54.7793929,124.736999 53.3278576,124.176831 C52.3677732,123.806106 51.9654855,123.352367 51.3178235,121.908845 C50.366866,119.788794 50.0347856,118.216138 50.1092053,116.183358 C50.1702857,114.509951 50.2250473,114.277583 50.85937,112.980222 C51.7148456,111.231251 53.5030247,109.373368 55.8602338,107.784039 C59.2975817,105.466741 61.0759318,104.862228 64.5048548,104.84449 C67.0530277,104.831364 67.0431986,104.751542 64.3855025,103.875993 C61.9359709,103.069266 59.6942527,102.824836 57.7607446,103.153699 Z" id="Path" fill="#000000"></path>
        </g>
    </g>
</svg>